<svg width="201" height="50" fill="none" xmlns="http://www.w3.org/2000/svg"><path d="M68 32V18.1h1.294l12.76 12.093V18.099h1.32V32h-1.03L69.321 19.648V32H68zm28.266 0l8.612-14h1.321l8.612 14h-1.506l-2.351-3.892h-10.91L97.693 32h-1.427zm4.359-4.826h9.748l-4.861-8.042-4.887 8.042zM127.703 32V18.1h7.766c2.254 0 3.989.456 5.204 1.37.934.701 1.4 1.575 1.4 2.62 0 1.126-.493 2.026-1.479 2.701-.986.676-2.298 1.1-3.936 1.271L142.76 32h-1.743l-5.891-5.759h-6.049V32h-1.374zm1.374-6.692h6.234c1.585 0 2.879-.285 3.883-.854 1.004-.583 1.506-1.37 1.506-2.363 0-.94-.467-1.681-1.4-2.224-.934-.543-2.237-.815-3.91-.815h-6.313v6.256zM154.189 32l8.612-14h1.321l8.612 14h-1.506l-2.351-3.892h-10.91L155.616 32h-1.427zm4.359-4.826h9.748l-4.861-8.042-4.887 8.042zM185.626 32V18.1h1.294l12.759 12.093V18.099H201V32h-1.03l-13.023-12.352V32h-1.321z" fill="#000"/><circle cx="25" cy="25" r="25" fill="#ED6F2D"/></svg>